<svg width="440" height="440" viewBox="0 0 440 440" fill="none" xmlns="http://www.w3.org/2000/svg">
<path d="M440 220C440 341.503 341.503 440 220 440C98.4974 440 0 341.503 0 220C0 98.4974 98.4974 0 220 0C142.862 179.418 228.397 289.096 440 220Z" fill="white"/>
<path d="M244.093 204.681C244.168 205.035 244.345 205.361 244.603 205.621C244.86 205.88 245.189 206.063 245.549 206.146C269.572 211.88 325.078 191.448 355.151 162.104C360.515 156.91 365.404 151.27 369.765 145.247C379.038 146.048 388.312 145.379 396.216 142.016C418.516 132.435 425.009 107.434 426.818 96.6797C426.92 96.0911 426.881 95.4872 426.705 94.9156C426.528 94.3441 426.217 93.8204 425.798 93.3857C425.378 92.9511 424.861 92.6174 424.288 92.4108C423.714 92.2043 423.098 92.1305 422.49 92.1953L386.68 96.0511C386.654 93.4155 386.491 90.7828 386.192 88.1634C386.011 86.3443 385.184 84.6444 383.854 83.3587L369.986 69.8535C368.668 68.5564 366.927 67.7492 365.064 67.5713C362.396 67.2799 359.714 67.1209 357.029 67.0948L360.959 32.1808C361.024 31.5874 360.948 30.9872 360.736 30.4274C360.524 29.8676 360.183 29.3633 359.737 28.9541C359.292 28.5448 358.756 28.2418 358.171 28.0688C357.586 27.8957 356.968 27.8573 356.365 27.9566C345.369 29.6783 319.713 36.0165 309.956 57.7857C306.511 65.5013 305.805 74.5101 306.601 83.5189C300.416 87.7757 294.624 92.5504 289.288 97.7888C259.121 127.089 238.31 180.065 244.093 204.681ZM319.385 132.743C322.14 135.43 324.016 138.855 324.777 142.583C325.538 146.311 325.149 150.176 323.659 153.689C322.169 157.201 319.646 160.204 316.408 162.316C313.17 164.428 309.363 165.556 305.469 165.556C301.574 165.556 297.767 164.428 294.53 162.316C291.292 160.204 288.768 157.201 287.279 153.689C285.789 150.176 285.4 146.311 286.16 142.583C286.921 138.855 288.798 135.43 291.552 132.743C293.379 130.957 295.548 129.541 297.936 128.574C300.324 127.607 302.884 127.11 305.469 127.11C308.054 127.11 310.614 127.607 313.001 128.574C315.389 129.541 317.559 130.957 319.385 132.743Z" fill="white"/>
<path d="M370.93 60.072C373.177 57.8738 376.783 57.017 381.122 56.2843C390.871 54.6627 399.481 62.8867 397.729 72.5081C397.061 76.1557 395.084 81.2687 393.853 82.4698C393.584 82.7273 393.405 83.061 393.342 83.4234C393.278 83.7858 393.333 84.1586 393.499 84.4889C393.664 84.8191 393.933 85.09 394.265 85.263C394.597 85.436 394.977 85.5024 395.35 85.4527C400.802 84.8015 405.874 82.3886 409.759 78.598C419.402 69.1769 420.312 34.2187 420.312 34.2187C420.312 34.2187 384.481 35.1076 374.838 44.5288C370.943 48.318 368.468 53.2769 367.812 58.6065C367.661 60.2802 369.748 61.2771 370.93 60.072V60.072Z" fill="url(#paint0_linear)"/>
<circle cx="111.5" cy="154.5" r="37.5" fill="black"/>
<defs>
<linearGradient id="paint0_linear" x1="379" y1="76" x2="420" y2="34" gradientUnits="userSpaceOnUse">
<stop stop-color="#FFC700"/>
<stop offset="1" stop-color="#FF0000"/>
</linearGradient>
</defs>
</svg>
